<?xml version="1.0" standalone="no"?>
<!DOCTYPE svg PUBLIC "-//W3C//DTD SVG 20010904//EN"
 "http://www.w3.org/TR/2001/REC-SVG-20010904/DTD/svg10.dtd">
<svg version="1.0" xmlns="http://www.w3.org/2000/svg"
 width="69.000000pt" height="79.000000pt" viewBox="0 0 69.000000 79.000000"
 preserveAspectRatio="xMidYMid meet">

<g transform="translate(0.000000,79.000000) scale(0.100000,-0.100000)"
fill="#0c2e40" stroke="none">
<path d="M300 535 c0 -30 -4 -55 -10 -55 -5 0 -10 14 -10 30 0 34 0 34 -34 19
-30 -14 -73 -73 -86 -117 l-9 -32 195 0 c192 0 194 0 194 22 0 33 -47 106 -80
123 -39 20 -40 20 -40 -15 0 -16 -4 -30 -10 -30 -5 0 -10 25 -10 55 0 48 -2
55 -20 55 -15 0 -20 -7 -20 -24 0 -14 -4 -28 -10 -31 -6 -4 -10 7 -10 24 0 24
-4 31 -20 31 -18 0 -20 -7 -20 -55z m75 -100 c0 -35 -31 -47 -51 -20 -18 25 0
57 29 53 17 -2 22 -10 22 -33z"/>
<path d="M112 338 l3 -23 235 0 235 0 3 23 3 22 -241 0 -241 0 3 -22z"/>
</g>
</svg>
