<?xml version="1.0" standalone="no"?>
<!DOCTYPE svg PUBLIC "-//W3C//DTD SVG 20010904//EN"
 "http://www.w3.org/TR/2001/REC-SVG-20010904/DTD/svg10.dtd">
<svg version="1.0" xmlns="http://www.w3.org/2000/svg"
 width="75.000000pt" height="78.000000pt" viewBox="0 0 75.000000 78.000000"
 preserveAspectRatio="xMidYMid meet">

<g transform="translate(0.000000,78.000000) scale(0.100000,-0.100000)"
fill="#000000" stroke="none">
<path d="M350 554 c0 -42 -21 -54 -99 -54 -41 0 -71 -4 -71 -10 0 -5 7 -10 15
-10 19 0 20 5 -11 -70 -20 -50 -23 -68 -15 -86 20 -45 102 -44 123 1 9 20 6
35 -16 85 -14 34 -26 63 -26 66 0 10 77 3 88 -8 7 -7 12 -43 12 -93 0 -69 -3
-82 -20 -93 -33 -21 -23 -32 30 -32 53 0 63 11 30 32 -17 11 -20 24 -20 93 0
50 5 86 12 93 11 11 88 18 88 8 0 -3 -12 -32 -26 -66 -22 -50 -25 -65 -16 -85
21 -45 103 -46 123 -1 8 18 5 36 -15 86 -31 75 -30 70 -11 70 8 0 15 5 15 10
0 6 -30 10 -71 10 -78 0 -99 12 -99 54 0 14 -4 26 -10 26 -5 0 -10 -12 -10
-26z m-102 -131 c5 -16 13 -36 17 -45 6 -16 1 -18 -35 -18 -23 0 -40 3 -38 8
2 4 10 24 18 45 17 44 25 46 38 10z m262 -10 c8 -21 16 -41 18 -45 2 -5 -15
-8 -38 -8 -36 0 -41 2 -35 18 4 9 12 29 17 45 13 36 21 34 38 -10z"/>
<path d="M261 201 c-6 -10 -7 -21 -4 -25 8 -8 198 -8 206 0 3 4 2 15 -4 25 -8
16 -22 19 -99 19 -77 0 -91 -3 -99 -19z"/>
</g>
</svg>
