<?xml version="1.0" standalone="no"?>
<!DOCTYPE svg PUBLIC "-//W3C//DTD SVG 20010904//EN"
 "http://www.w3.org/TR/2001/REC-SVG-20010904/DTD/svg10.dtd">
<svg version="1.0" xmlns="http://www.w3.org/2000/svg"
 width="75.000000pt" height="78.000000pt" viewBox="0 0 75.000000 78.000000"
 preserveAspectRatio="xMidYMid meet">

<g transform="translate(0.000000,78.000000) scale(0.100000,-0.100000)"
fill="#000000" stroke="none">
<path d="M137 603 c-4 -3 -7 -26 -7 -50 0 -41 1 -43 30 -43 l30 0 2 -177 3
-178 165 0 165 0 3 28 c2 19 -1 27 -12 27 -12 0 -16 10 -16 37 l0 37 33 -32
c30 -29 35 -31 47 -17 11 14 7 22 -29 59 -42 42 -42 42 -21 61 l20 18 -25 27
c-23 24 -25 34 -25 108 0 70 -3 83 -19 92 -21 11 -333 14 -344 3z m53 -49 c0
-30 -3 -34 -25 -34 -22 0 -25 4 -25 34 0 19 6 36 13 39 24 8 37 -6 37 -39z
m284 30 c12 -11 16 -35 16 -85 l0 -69 -55 -53 -54 -54 30 -29 31 -29 18 22
c23 28 30 20 30 -34 l0 -43 -120 0 c-92 0 -120 -3 -120 -13 0 -23 -22 -38 -37
-26 -10 9 -13 59 -13 220 l0 209 129 0 c104 0 133 -3 145 -16z m39 -192 c10
-10 14 -22 10 -25 -7 -8 -43 21 -43 35 0 14 16 9 33 -10z m-24 -25 c17 -21
-23 -55 -44 -37 -14 12 -14 15 1 31 20 23 28 23 43 6z m-42 -73 c-10 -10 -48
27 -41 38 4 6 16 1 27 -11 12 -11 18 -24 14 -27z m123 -48 c0 -6 -18 8 -40 29
-22 21 -40 44 -40 49 0 6 18 -8 40 -29 22 -21 40 -44 40 -49z m-52 -68 c-3 -9
-41 -14 -131 -16 -109 -2 -127 0 -127 13 0 13 20 15 131 15 100 0 130 -3 127
-12z"/>
<path d="M230 560 c0 -6 47 -10 120 -10 73 0 120 4 120 10 0 6 -47 10 -120 10
-73 0 -120 -4 -120 -10z"/>
<path d="M230 530 c0 -6 47 -10 120 -10 73 0 120 4 120 10 0 6 -47 10 -120 10
-73 0 -120 -4 -120 -10z"/>
<path d="M230 500 c0 -6 47 -10 120 -10 73 0 120 4 120 10 0 6 -47 10 -120 10
-73 0 -120 -4 -120 -10z"/>
<path d="M230 470 c0 -6 47 -10 120 -10 73 0 120 4 120 10 0 6 -47 10 -120 10
-73 0 -120 -4 -120 -10z"/>
<path d="M230 440 c0 -6 47 -10 120 -10 73 0 120 4 120 10 0 6 -47 10 -120 10
-73 0 -120 -4 -120 -10z"/>
<path d="M230 410 c0 -6 42 -10 105 -10 63 0 105 4 105 10 0 6 -42 10 -105 10
-63 0 -105 -4 -105 -10z"/>
<path d="M230 380 c0 -6 40 -10 100 -10 60 0 100 4 100 10 0 6 -40 10 -100 10
-60 0 -100 -4 -100 -10z"/>
<path d="M270 353 c-55 -20 -67 -78 -24 -112 33 -26 45 -26 78 0 17 13 26 30
26 49 0 19 -9 36 -26 49 -28 22 -30 23 -54 14z m56 -38 c15 -23 15 -27 0 -50
-22 -33 -60 -33 -82 0 -15 23 -15 27 0 50 10 15 26 25 41 25 15 0 31 -10 41
-25z"/>
<path d="M260 315 c-26 -31 13 -82 44 -56 19 16 21 42 4 59 -16 16 -33 15 -48
-3z m48 -22 c5 -17 -26 -29 -40 -15 -6 6 -7 15 -3 22 9 14 37 9 43 -7z"/>
<path d="M388 246 c-10 -7 -18 -15 -18 -17 0 -9 90 -7 90 1 0 6 -11 10 -24 10
-13 0 -26 4 -28 9 -1 5 -11 4 -20 -3z"/>
</g>
</svg>
