<?xml version="1.0" standalone="no"?>
<!DOCTYPE svg PUBLIC "-//W3C//DTD SVG 20010904//EN"
 "http://www.w3.org/TR/2001/REC-SVG-20010904/DTD/svg10.dtd">
<svg version="1.0" xmlns="http://www.w3.org/2000/svg"
 width="75.000000pt" height="78.000000pt" viewBox="0 0 75.000000 78.000000"
 preserveAspectRatio="xMidYMid meet">

<g transform="translate(0.000000,78.000000) scale(0.100000,-0.100000)"
fill="#000000" stroke="none">
<path d="M335 590 c-110 -25 -160 -158 -95 -250 25 -35 90 -70 130 -70 40 0
105 35 130 70 84 118 -25 282 -165 250z m115 -108 c0 -4 -25 -32 -55 -62 l-55
-54 -27 26 c-31 31 -24 51 7 23 21 -19 22 -18 68 28 45 45 62 56 62 39z"/>
<path d="M196 289 l-18 -31 33 4 c31 3 34 0 37 -24 4 -35 17 -35 39 -1 13 20
14 28 5 31 -7 2 -26 15 -41 28 -16 13 -31 24 -33 24 -2 0 -12 -14 -22 -31z"/>
<path d="M488 296 c-15 -13 -32 -26 -40 -28 -10 -4 -9 -11 5 -31 22 -34 35
-34 39 1 3 24 6 27 37 24 l33 -4 -18 31 c-10 17 -21 31 -24 31 -3 0 -17 -11
-32 -24z"/>
</g>
</svg>
