<?xml version="1.0" standalone="no"?>
<!DOCTYPE svg PUBLIC "-//W3C//DTD SVG 20010904//EN"
 "http://www.w3.org/TR/2001/REC-SVG-20010904/DTD/svg10.dtd">
<svg version="1.0" xmlns="http://www.w3.org/2000/svg"
 width="75.000000pt" height="78.000000pt" viewBox="0 0 75.000000 78.000000"
 preserveAspectRatio="xMidYMid meet">

<g transform="translate(0.000000,78.000000) scale(0.100000,-0.100000)"
fill="#000000" stroke="none">
<path d="M160 430 l0 -240 195 0 195 0 0 162 0 162 45 46 c46 46 46 46 25 65
-20 18 -21 18 -48 -8 l-28 -27 -39 40 -39 40 -153 0 -153 0 0 -240z m335 190
l29 -30 -26 0 c-20 0 -28 6 -31 23 -3 16 -5 13 -6 -10 -1 -31 1 -33 31 -33 32
0 32 -1 -64 -97 -53 -54 -99 -109 -103 -122 -14 -45 45 -15 125 65 42 41 79
74 83 74 4 0 7 -63 7 -140 l0 -140 -180 0 -180 0 0 220 0 220 143 0 143 0 29
-30z m119 -8 c3 -5 -51 -64 -118 -131 -83 -83 -126 -119 -131 -111 -5 8 35 55
111 131 65 65 122 119 126 119 4 0 9 -4 12 -8z"/>
<path d="M202 573 c3 -36 5 -38 37 -38 19 0 36 6 38 12 3 9 -4 11 -26 7 -20
-4 -31 -2 -31 4 0 6 6 9 13 6 7 -2 24 7 37 21 13 14 19 25 13 25 -6 0 -16 -7
-23 -15 -14 -16 -40 -20 -40 -6 0 5 6 12 13 14 6 3 2 6 -11 6 -21 1 -23 -3
-20 -36z"/>
<path d="M200 470 l0 -40 40 0 c29 0 40 4 40 15 0 8 -4 15 -10 15 -5 0 -10 -4
-10 -10 0 -5 -9 -10 -20 -10 -12 0 -20 7 -20 16 0 13 3 14 14 5 11 -9 18 -6
36 19 21 30 13 43 -10 15 -7 -8 -20 -15 -29 -14 -10 0 -11 2 -3 6 19 8 14 23
-8 23 -17 0 -20 -7 -20 -40z"/>
<path d="M200 365 c0 -34 1 -35 40 -35 39 0 40 1 40 35 0 34 -1 35 -40 35 -39
0 -40 -1 -40 -35z m60 0 c0 -18 -5 -25 -20 -25 -15 0 -20 7 -20 25 0 18 5 25
20 25 15 0 20 -7 20 -25z"/>
<path d="M202 263 c3 -36 5 -38 41 -41 l37 -3 0 40 0 41 -41 0 -40 0 3 -37z
m58 2 c0 -18 -5 -25 -20 -25 -15 0 -20 7 -20 25 0 18 5 25 20 25 15 0 20 -7
20 -25z"/>
<path d="M440 230 c0 -5 5 -10 10 -10 6 0 10 5 10 10 0 6 -4 10 -10 10 -5 0
-10 -4 -10 -10z"/>
<path d="M470 230 c0 -5 5 -10 10 -10 6 0 10 5 10 10 0 6 -4 10 -10 10 -5 0
-10 -4 -10 -10z"/>
<path d="M500 230 c0 -5 5 -10 10 -10 6 0 10 5 10 10 0 6 -4 10 -10 10 -5 0
-10 -4 -10 -10z"/>
</g>
</svg>
